<?xml version="1.0" encoding="UTF-8"?>
<svg width="708px" height="550px" viewBox="0 0 708 550" version="1.1" xmlns="http://www.w3.org/2000/svg" xmlns:xlink="http://www.w3.org/1999/xlink">
    <!-- Generator: sketchtool 55.1 (78136) - https://sketchapp.com -->
    <title>logo</title>
    <desc>Created with sketchtool.</desc>
    <g id="Page-1" stroke="none" stroke-width="1" fill="none" fill-rule="evenodd">
        <g id="logo" fill="#353F4A">
            <g id="okauto-logo" transform="translate(0.000000, 0.000000)">
                <path d="M348.543609,175.757008 C348.543609,174.15203 349.874436,172.850481 351.524662,172.83185 C351.364962,163.122135 350.433383,153.601398 348.756541,144.33618 L348.756541,144.333519 C347.132932,144.660902 345.53594,143.638827 345.216541,142.04982 C344.897143,140.463474 345.988421,138.914391 347.61203,138.589669 C345.589173,129.151444 342.794436,119.99003 339.307669,111.179955 L339.307669,111.18794 C337.76391,111.829398 336.007218,111.132045 335.395038,109.638857 C334.782857,108.143008 335.52812,106.415594 337.07188,105.776797 L337.07188,105.774135 C333.239098,96.9640602 328.714286,88.5239549 323.550677,80.5310075 C322.166617,81.4519398 320.330075,81.1112481 319.425113,79.7671128 C318.52015,78.4283008 318.919398,76.5970827 320.303459,75.6681654 C314.847068,67.8029774 308.75188,60.4062406 302.124361,53.5471579 C300.926617,54.6996541 299.063459,54.7209474 297.945564,53.5844211 C296.801053,52.4505564 296.827669,50.5873985 297.97218,49.4082857 C291.131729,42.7701203 283.732331,36.6909023 275.853835,31.2345113 C274.922256,32.6052632 273.085714,32.9938647 271.754887,32.0968872 C270.42406,31.1999098 270.078045,29.3527218 270.983008,27.9686617 C262.998045,22.8103759 254.560602,18.2855639 245.750526,14.4581053 L245.750526,14.4660902 C245.111729,16.0045263 243.381654,16.7497895 241.891128,16.1322857 C240.400602,15.5121203 239.708571,13.7634135 240.320752,12.2223158 L240.347368,12.2036842 C231.537293,8.7222406 222.381203,5.94613534 212.932331,3.91263158 C212.612932,5.54688722 211.069173,6.61421053 209.47218,6.30013534 C207.875188,5.9833985 206.863759,4.40237594 207.183158,2.7681203 L207.183158,2.76545865 C197.920602,1.09393985 188.39188,0.157037594 178.703459,0 C178.676842,1.64756391 177.372632,2.98105263 175.775639,2.98105263 C174.15203,2.98105263 172.84782,1.64756391 172.84782,0 C163.132782,0.157037594 153.60406,1.09393985 144.341504,2.76545865 L144.341504,2.7681203 C144.660902,4.40237594 143.649474,5.9833985 142.052481,6.30013534 C140.482105,6.61421053 138.911729,5.54688722 138.592331,3.91263158 C129.170075,5.94613534 119.987368,8.7222406 111.177293,12.2036842 L111.20391,12.2223158 C111.842707,13.7634135 111.150677,15.5121203 109.66015,16.1322857 C108.143008,16.7497895 106.412932,16.0045263 105.774135,14.4660902 L105.774135,14.4581053 C96.9640602,18.2855639 88.5266165,22.8103759 80.5416541,27.9686617 C81.4732331,29.3527218 81.127218,31.1999098 79.7697744,32.0968872 C78.4389474,32.9938647 76.602406,32.6052632 75.6708271,31.2345113 C67.8189474,36.6909023 60.4195489,42.7701203 53.5524812,49.4082857 C54.6969925,50.5873985 54.723609,52.4505564 53.6057143,53.5844211 C52.461203,54.7209474 50.5980451,54.6996541 49.4269173,53.5471579 C42.772782,60.4062406 36.7042105,67.8029774 31.2478195,75.6681654 C32.6052632,76.5970827 33.0045113,78.4283008 32.0995489,79.7671128 C31.221203,81.1112481 29.3580451,81.4519398 27.973985,80.5310075 C22.8103759,88.5239549 18.2855639,96.9640602 14.4793985,105.774135 L14.4793985,105.776797 C16.0231579,106.415594 16.7684211,108.143008 16.1296241,109.638857 C15.5174436,111.132045 13.7607519,111.829398 12.243609,111.190602 L12.2169925,111.182617 C8.73022556,119.99003 5.96210526,129.151444 3.91263158,138.589669 C5.56285714,138.914391 6.6275188,140.463474 6.3081203,142.04982 C5.9887218,143.636165 4.41834586,144.660902 2.7681203,144.33618 C1.0912782,153.601398 0.159699248,163.122135 0,172.83185 C1.65022556,172.850481 2.98105263,174.15203 2.98105263,175.757008 C2.98105263,177.364647 1.65022556,178.663534 0,178.684827 C0.159699248,188.394541 1.0912782,197.915278 2.7681203,207.180496 C4.41834586,206.855774 5.9887218,207.87785 6.3081203,209.464195 C6.6275188,211.053203 5.56285714,212.602286 3.91263158,212.927008 C5.96210526,222.365233 8.73022556,231.526647 12.2169925,240.33406 L12.243609,240.326075 C13.7607519,239.687278 15.5174436,240.38197 16.1296241,241.87782 C16.7684211,243.373669 16.0231579,245.101083 14.4793985,245.73988 C18.2855639,254.552617 22.8103759,262.992722 27.973985,270.983008 C29.3580451,270.064737 31.221203,270.405429 32.0995489,271.746902 C33.0045113,273.088376 32.6052632,274.916932 31.2478195,275.848511 C36.7042105,283.711038 42.772782,291.110436 49.4269173,297.969519 C50.5980451,296.817023 52.461203,296.795729 53.6057143,297.929594 C54.723609,299.06612 54.6969925,300.929278 53.5524812,302.108391 C60.4195489,308.743895 67.8189474,314.825774 75.6708271,320.282165 C76.602406,318.911414 78.4389474,318.522812 79.7697744,319.417128 C81.127218,320.314105 81.4466165,322.161293 80.5416541,323.545353 C88.5266165,328.706301 96.9640602,333.228451 105.774135,337.058571 L105.774135,337.050586 C106.412932,335.51215 108.143008,334.764226 109.66015,335.384391 C111.150677,336.004556 111.842707,337.753263 111.20391,339.291699 L111.177293,339.312992 C119.987368,342.791774 129.170075,345.570541 138.592331,347.604045 C138.911729,345.969789 140.482105,344.899805 142.052481,345.216541 C143.649474,345.530617 144.660902,347.111639 144.341504,348.745895 L144.341504,348.748556 C153.60406,350.420075 163.132782,351.356977 172.84782,351.516677 C172.84782,349.866451 174.15203,348.535624 175.775639,348.535624 C177.372632,348.535624 178.676842,349.866451 178.703459,351.516677 C188.39188,351.356977 197.920602,350.420075 207.183158,348.748556 L207.183158,348.745895 C206.863759,347.111639 207.875188,345.530617 209.47218,345.216541 C211.069173,344.899805 212.612932,345.969789 212.932331,347.604045 C222.381203,345.570541 231.537293,342.791774 240.347368,339.312992 L240.320752,339.291699 C239.708571,337.753263 240.400602,336.004556 241.891128,335.384391 C243.381654,334.764226 245.111729,335.51215 245.750526,337.050586 L245.750526,337.058571 C254.560602,333.228451 262.998045,328.706301 270.983008,323.545353 C270.078045,322.161293 270.42406,320.314105 271.754887,319.417128 C273.085714,318.522812 274.922256,318.911414 275.853835,320.282165 C283.732331,314.825774 291.131729,308.743895 297.97218,302.108391 C296.827669,300.929278 296.801053,299.06612 297.945564,297.929594 C299.063459,296.795729 300.926617,296.817023 302.124361,297.969519 C308.75188,291.110436 314.847068,283.711038 320.303459,275.848511 C318.919398,274.916932 318.52015,273.088376 319.425113,271.746902 C320.330075,270.405429 322.166617,270.064737 323.550677,270.983008 C328.714286,262.992722 333.239098,254.552617 337.07188,245.73988 C335.52812,245.101083 334.782857,243.373669 335.395038,241.87782 C336.007218,240.38197 337.76391,239.687278 339.307669,240.326075 L339.307669,240.33406 C342.794436,231.526647 345.589173,222.365233 347.61203,212.927008 C345.988421,212.602286 344.897143,211.053203 345.216541,209.464195 C345.53594,207.87785 347.132932,206.855774 348.756541,207.180496 C350.433383,197.915278 351.364962,188.394541 351.524662,178.684827 C349.874436,178.663534 348.543609,177.364647 348.543609,175.757008 M175.749023,58.556391 C111.017594,58.556391 58.556391,111.025579 58.556391,175.751684 C58.556391,240.477789 111.017594,292.949639 175.749023,292.949639 C240.453835,292.949639 292.941654,240.477789 292.941654,175.751684 C292.941654,111.025579 240.453835,58.556391 175.749023,58.556391 L175.749023,58.556391 Z M258.127218,235.724075 C253.203158,242.492662 243.062256,242.42612 238.164812,235.649549 L216.578797,205.950812 C212.879098,200.853744 212.027368,194.306075 213.996992,188.317353 C214.050226,188.125714 214.103459,187.934075 214.156692,187.739774 C215.993233,181.838887 220.651128,177.234226 226.506767,175.32582 L261.454286,163.979188 C269.386015,161.402707 277.637143,167.242376 277.663759,175.584 L277.663759,175.751684 C277.663759,198.170797 270.397444,218.897098 258.127218,235.724075 L258.127218,235.724075 Z M207.183158,272.718406 C197.281805,275.928361 186.715038,277.663759 175.749023,277.663759 C164.756391,277.663759 154.216241,275.928361 144.314887,272.718406 C136.276692,270.115308 133.082707,260.46415 138.06,253.637008 L159.646015,223.914316 C163.345714,218.830556 169.281203,215.979925 175.562707,216.006541 L175.749023,216.006541 L175.908722,216.006541 C182.190226,215.979925 188.152331,218.830556 191.825414,223.914316 L213.438045,253.637008 C218.388722,260.466812 215.194737,270.115308 207.183158,272.718406 L207.183158,272.718406 Z M175.749023,290.604722 C173.140602,290.604722 171.064511,288.507338 171.064511,285.917549 C171.064511,283.327759 173.140602,281.230376 175.749023,281.230376 C178.330827,281.230376 180.433534,283.327759 180.433534,285.917549 C180.433534,288.507338 178.330827,290.604722 175.749023,290.604722 L175.749023,290.604722 Z M113.333233,235.649549 C108.409173,242.423459 98.2682707,242.49 93.3442105,235.724075 C81.073985,218.897098 73.8342857,198.170797 73.8342857,175.751684 L73.8342857,175.584 C73.8342857,167.242376 82.1120301,161.402707 90.0437594,163.979188 L124.964662,175.32582 C130.873534,177.247534 135.478195,181.921398 137.341353,187.848902 C137.421203,188.117729 137.527669,188.383895 137.607519,188.652722 C139.577143,194.505699 138.539098,200.952226 134.919248,205.94815 L113.333233,235.649549 L113.333233,235.649549 Z M93.3708271,115.760662 C105.880602,98.5876692 123.660451,85.4790226 144.288271,78.7876241 C152.273233,76.2031579 160.444511,82.1998647 160.444511,90.5867368 L160.444511,127.333534 C160.444511,133.556481 157.410226,139.372195 152.353083,142.992045 C152.166767,143.138436 151.953835,143.284827 151.740902,143.43388 C146.790226,147.136241 140.322406,148.166301 134.413534,146.252571 L99.4926316,134.903278 C91.4544361,132.289534 88.3669173,122.593128 93.3708271,115.760662 L93.3708271,115.760662 Z M175.749023,155.243639 C187.061053,155.243639 196.243759,164.426346 196.243759,175.751684 C196.243759,187.079684 187.061053,196.262391 175.749023,196.262391 C164.410376,196.262391 155.227669,187.079684 155.227669,175.751684 C155.227669,164.426346 164.410376,155.243639 175.749023,155.243639 L175.749023,155.243639 Z M191.026917,90.5867368 C191.026917,82.1998647 199.198195,76.2031579 207.183158,78.7876241 C227.837594,85.4790226 245.590827,98.5876692 258.127218,115.760662 C263.104511,122.593128 260.043609,132.289534 251.978797,134.903278 L217.190977,146.209985 C211.255489,148.142346 204.70782,147.146887 199.677293,143.404602 C199.544211,143.29015 199.384511,143.178361 199.224812,143.066571 C194.141053,139.404135 191.026917,133.604391 191.026917,127.333534 L191.026917,90.5867368 L191.026917,90.5867368 Z" id="Combined-Shape"></path>
                <polyline id="Fill-13" points="544.973684 149.899038 681.569774 337.415233 607.469323 337.415233 503.29218 193.882872 445.42782 254.07618 445.42782 337.415233 380.616541 337.415233 380.616541 13.3082707 445.42782 13.3082707 445.42782 166.103188 447.743459 166.103188 593.602105 13.3082707 672.307218 13.3082707 544.973684 149.899038"></polyline>
                <path d="M97.2302256,436.332947 L94.941203,436.332947 L81.1006015,477.854752 L111.070827,477.854752 L97.2302256,436.332947 L97.2302256,436.332947 Z M58.0240602,544.752767 L2.66165414,544.752767 L64.9443609,383.278195 L127.227068,383.278195 L189.509774,544.752767 L134.147368,544.752767 L126.082556,519.376556 L66.0888722,519.376556 L58.0240602,544.752767 L58.0240602,544.752767 Z" id="Fill-14"></path>
                <path d="M247.72015,480.159744 C247.72015,497.694722 259.03218,508.996105 275.401353,508.996105 C291.770526,508.996105 303.082556,497.694722 303.082556,480.159744 L303.082556,383.278195 L353.840301,383.278195 L353.840301,480.159744 C353.840301,519.376556 324.083008,549.365414 275.401353,549.365414 C226.719699,549.365414 196.962406,519.376556 196.962406,480.159744 L196.962406,383.278195 L247.72015,383.278195 L247.72015,480.159744" id="Fill-15"></path>
                <polyline id="Fill-16" points="520.273534 383.278195 520.273534 427.104992 471.831429 427.104992 471.831429 544.752767 421.073684 544.752767 421.073684 427.104992 372.631579 427.104992 372.631579 383.278195 520.273534 383.278195"></polyline>
                <path d="M616.971429,508.288105 C636.58782,508.288105 653.888571,490.987353 653.888571,463.30615 C653.888571,435.624947 636.58782,418.324195 616.971429,418.324195 C597.355038,418.324195 580.080902,435.624947 580.080902,463.30615 C580.080902,490.987353 597.355038,508.288105 616.971429,508.288105 L616.971429,508.288105 Z M616.971429,548.657414 C563.924662,548.657414 527.007519,511.748256 527.007519,463.30615 C527.007519,414.864045 563.924662,377.954887 616.971429,377.954887 C670.044812,377.954887 706.935338,414.864045 706.935338,463.30615 C706.935338,511.748256 670.044812,548.657414 616.971429,548.657414 L616.971429,548.657414 Z" id="Fill-17"></path>
            </g>
        </g>
    </g>
</svg>